<svg width="148" height="39" viewBox="0 0 148 39" fill="none" xmlns="http://www.w3.org/2000/svg">
<path d="M0 0V38.0066H35.1879V33.7466H4.214V4.26004H35.1879V0H0Z" fill="white"/>
<path d="M60.5508 16.9615L66.4737 7.67578H71.3674L64.3376 18.7087V19.2976L71.7557 30.3109H66.6679L60.5508 21.0448V16.9615Z" fill="white"/>
<path d="M85.7947 21.0448H91.4263L88.9018 9.81562H88.3192L85.7947 21.0448ZM92.3778 25.3049H84.8431L83.7168 30.3109H79.3086L84.6489 7.67578H92.572L97.9123 30.3109H93.5041L92.3778 25.3049Z" fill="white"/>
<path d="M109.098 7.67578H113.312V26.2472H123.487V30.3109H109.098V7.67578Z" fill="white"/>
<path d="M38.6819 14.6059C38.6819 13.7028 38.3324 12.9175 37.6333 12.2501C36.9342 11.5826 35.9632 11.2489 34.701 11.2489C33.6329 11.2489 32.7979 11.4648 32.1765 11.9163C31.5551 12.3679 31.2443 12.9568 31.2443 13.7028C31.2443 14.0954 31.322 14.4488 31.4774 14.7629C31.6327 15.077 31.8852 15.3519 32.2541 15.6071C32.6231 15.8623 33.1086 16.0782 33.73 16.2745C34.332 16.4708 35.1088 16.6475 36.0409 16.8242C38.3907 17.2561 40.1772 17.9825 41.4201 18.9837C42.6629 20.0045 43.2843 21.4965 43.2843 23.4793V23.8719C43.2843 24.932 43.0901 25.8743 42.7212 26.7381C42.3522 27.5823 41.8085 28.3086 41.1094 28.9172C40.4103 29.5258 39.5558 29.9773 38.546 30.3111C37.5362 30.6252 36.4099 30.8018 35.1476 30.8018C33.6718 30.8018 32.3901 30.5859 31.2638 30.1736C30.1374 29.7614 29.2053 29.1724 28.4674 28.4264C27.7294 27.6804 27.1469 26.8166 26.7779 25.8154C26.3895 24.8142 26.1953 23.7149 26.1953 22.537V22.3407H30.4093C30.4093 23.6952 30.7977 24.775 31.5745 25.5995C32.3512 26.4044 33.5552 26.8166 35.2059 26.8166C36.4876 26.8166 37.4391 26.5418 38.0605 25.9725C38.6819 25.4032 38.9927 24.7357 38.9927 23.9701C38.9927 23.5971 38.9344 23.2633 38.7985 22.91C38.6625 22.5762 38.4489 22.2818 38.1188 22.0069C37.8081 21.7321 37.3614 21.4965 36.7983 21.2806C36.2351 21.0646 35.536 20.8879 34.6816 20.7309C33.5552 20.5346 32.526 20.2794 31.5745 19.9653C30.6423 19.6511 29.8267 19.2389 29.1276 18.7285C28.4285 18.2181 27.9042 17.5702 27.5158 16.785C27.1274 15.9997 26.9332 15.0574 26.9332 13.9384V13.7421C26.9332 12.8194 27.1274 11.9556 27.4964 11.1703C27.8654 10.3851 28.3897 9.69798 29.0694 9.10903C29.7491 8.52009 30.5452 8.06856 31.4968 7.75446C32.4483 7.44036 33.497 7.26367 34.6816 7.26367C36.0021 7.26367 37.1672 7.45999 38.1965 7.83299C39.2257 8.20598 40.0801 8.7164 40.7792 9.36424C41.4783 10.0121 41.9444 10.7777 42.3522 11.6022C42.8571 12.6034 42.8765 14.6451 42.8765 14.6451L38.6819 14.6059Z" fill="white"/>
<path d="M133.312 7.67578V30.3109H147.838V26.2472H137.546V11.7591H147.838V7.67578H133.312Z" fill="white"/>
<path d="M57.5382 7.67578H53.3242V30.3109H57.5382V7.67578Z" fill="white"/>
<path d="M144.617 16.9609H140.578V21.0443H144.617V16.9609Z" fill="white"/>
</svg>
